<?xml version="1.0" encoding="iso-8859-1"?>
<!-- Generator: Adobe Illustrator 19.0.0, SVG Export Plug-In . SVG Version: 6.00 Build 0)  -->
<svg version="1.1" id="Layer_1" xmlns="http://www.w3.org/2000/svg" xmlns:xlink="http://www.w3.org/1999/xlink" x="0px" y="0px"
	 viewBox="0 0 512.001 512.001" style="enable-background:new 0 0 512.001 512.001;" xml:space="preserve">
<path style="fill:#F95428;" d="M272.41,376.123c-15.727,0-31.164-4.425-44.795-13.017c-19.052-12.01-32.29-30.721-37.271-52.686
	c-4.981-21.959-1.11-44.544,10.899-63.598c12.01-19.051,30.72-32.287,52.685-37.269c45.339-10.282,90.583,18.243,100.867,63.585
	c4.981,21.959,1.112,44.544-10.898,63.598c-12.007,19.051-30.715,32.287-52.675,37.269
	C284.972,375.423,278.668,376.123,272.41,376.123z"/>
<path style="fill:#2BA5F7;" d="M335.917,277.419c7.935,34.978-13.997,69.772-48.975,77.707
	c-34.989,7.935-69.782-13.997-77.717-48.986c-7.935-34.978,13.997-69.772,48.986-77.707
	C293.198,220.498,327.981,242.431,335.917,277.419z"/>
<path style="fill:#2197D8;" d="M335.917,277.419c-7.935-34.989-42.718-56.921-77.707-48.986c-0.622,0.141-1.229,0.31-1.842,0.467
	c22.761,5.911,41.512,24,47.072,48.519c7.794,34.357-13.238,68.516-47.134,77.24c9.72,2.524,20.166,2.842,30.636,0.467
	C321.918,347.191,343.852,312.397,335.917,277.419z"/>
<g>
	<polygon style="fill:#F95428;" points="496.797,118.728 502.68,144.646 385.43,171.226 379.547,145.32 	"/>
	<polygon style="fill:#F95428;" points="120.702,204.014 126.572,229.932 9.322,256.513 3.452,230.594 	"/>
</g>
<path style="fill:#4D4D4D;" d="M9.362,265.882c-4.278,0-8.141-2.949-9.128-7.298c-1.144-5.046,2.018-10.064,7.065-11.208
	l493.259-111.867c5.05-1.143,10.064,2.02,11.209,7.065c1.144,5.046-2.018,10.064-7.064,11.208L11.442,265.648
	C10.745,265.806,10.048,265.882,9.362,265.882z"/>
<g>
	<path style="fill:#808080;" d="M358.758,393.273H186.387c-5.174,0-9.368-4.194-9.368-9.368s4.194-9.368,9.368-9.368h172.372
		c5.175,0,9.368,4.194,9.368,9.368S363.933,393.273,358.758,393.273z"/>
	<path style="fill:#808080;" d="M406.223,393.273H391.73c-5.175,0-9.368-4.194-9.368-9.368s4.193-9.368,9.368-9.368h14.493
		c5.175,0,9.368,4.194,9.368,9.368S411.398,393.273,406.223,393.273z"/>
	<circle style="fill:#808080;" cx="154.41" cy="383.901" r="9.368"/>
</g>
<g>
</g>
<g>
</g>
<g>
</g>
<g>
</g>
<g>
</g>
<g>
</g>
<g>
</g>
<g>
</g>
<g>
</g>
<g>
</g>
<g>
</g>
<g>
</g>
<g>
</g>
<g>
</g>
<g>
</g>
</svg>
